<?xml version="1.0" encoding="UTF-8"?>
<svg xmlns="http://www.w3.org/2000/svg" viewBox="0 0 128 128" role="img" aria-label="Apikulture">
	<defs>
		<linearGradient id="body" x1="0" y1="0" x2="0" y2="1">
			<stop offset="0" stop-color="#FFF59D"/>
			<stop offset="1" stop-color="#FFD54F"/>
		</linearGradient>
		<linearGradient id="wing" x1="0" y1="0" x2="1" y2="1">
			<stop offset="0" stop-color="#FFFFFF"/>
			<stop offset="1" stop-color="#E3F2FD"/>
		</linearGradient>
		<linearGradient id="hive" x1="0" y1="0" x2="0" y2="1">
			<stop offset="0" stop-color="#FFE082"/>
			<stop offset="0.5" stop-color="#FFB300"/>
			<stop offset="1" stop-color="#F57C00"/>
		</linearGradient>
		<radialGradient id="cheek" cx="50%" cy="50%" r="50%">
			<stop offset="0" stop-color="#FF8A95"/>
			<stop offset="1" stop-color="#FF8A95" stop-opacity="0"/>
		</radialGradient>
	</defs>
	<!-- Bee + hive scaled to fill the canvas; thick strokes for small-size clarity -->
	<g transform="translate(64 64) scale(1.612) translate(-63.54 -58.2)">
		<!-- Hive / API home -->
		<g id="hive-server" transform="translate(92 22)">
			<g fill="url(#hive)" stroke="#D84315" stroke-width="1.6" stroke-linejoin="round">
				<path d="M0 8 L10 14v12L0 32-10 26V14Z"/>
				<path d="M0 28 L10 34v12L0 52-10 46V34Z"/>
				<path d="M0 48 L10 54v12L0 72-10 66V54Z"/>
			</g>
			<path d="M0 48 L10 54v12L0 72-10 66V54Z" fill="#00897B" opacity="0.45"/>
			<text x="0" y="60" font-family="Consolas, 'DejaVu Sans Mono', ui-monospace, monospace" font-size="13" font-weight="700" fill="#004D40" text-anchor="middle" dominant-baseline="central">{ }</text>
		</g>
		<!-- Request trail -->
		<g fill="#F57F17">
			<circle cx="66" cy="54" r="3"/>
			<circle cx="76" cy="52" r="3"/>
			<circle cx="86" cy="50" r="3"/>
		</g>
		<path d="M52 57 Q70 51 84 48" fill="none" stroke="#F9A825" stroke-width="2" stroke-dasharray="4 4" stroke-linecap="round" opacity="0.75"/>
		<!-- Bee -->
		<g transform="translate(8 8)">
			<ellipse cx="34" cy="48" rx="17" ry="12" fill="url(#wing)" opacity="0.95" transform="rotate(-24 34 48)"/>
			<ellipse cx="34" cy="48" rx="17" ry="12" fill="url(#wing)" opacity="0.5" transform="rotate(8 34 48)"/>
			<ellipse cx="42" cy="64" rx="16" ry="20" fill="url(#body)"/>
			<rect x="28" y="56" width="28" height="3.4" rx="1.2" fill="#4E342E"/>
			<rect x="28" y="63" width="28" height="3.4" rx="1.2" fill="#4E342E"/>
			<rect x="28" y="70" width="28" height="3.4" rx="1.2" fill="#4E342E"/>
			<ellipse cx="42" cy="48" rx="13" ry="10" fill="#FFEE58"/>
			<ellipse cx="52" cy="32" rx="17" ry="16" fill="#FFEE58"/>
			<ellipse cx="54" cy="34" rx="16" ry="14" fill="#FFF176"/>
			<ellipse cx="38" cy="30" rx="4.5" ry="3.5" fill="url(#cheek)" opacity="0.5"/>
			<ellipse cx="60" cy="30" rx="4.5" ry="3.5" fill="url(#cheek)" opacity="0.5"/>
			<ellipse cx="48" cy="28" rx="6" ry="6.5" fill="#FFF"/>
			<ellipse cx="58" cy="28" rx="6" ry="6.5" fill="#FFF"/>
			<ellipse cx="48.5" cy="29" rx="3.6" ry="4.2" fill="#3E2723"/>
			<ellipse cx="58.5" cy="29" rx="3.6" ry="4.2" fill="#3E2723"/>
			<circle cx="50" cy="26" r="2" fill="#FFF"/>
			<circle cx="60" cy="26" r="2" fill="#FFF"/>
			<path d="M47 38 Q52 42 59 38" fill="none" stroke="#5D4037" stroke-width="1.6" stroke-linecap="round"/>
			<path d="M46 22 Q44 18 42 16" fill="none" stroke="#4E342E" stroke-width="1.5" stroke-linecap="round"/>
			<path d="M58 22 Q60 18 62 16" fill="none" stroke="#4E342E" stroke-width="1.5" stroke-linecap="round"/>
			<circle cx="42" cy="16" r="1.6" fill="#FFAB91"/>
			<circle cx="62" cy="16" r="1.6" fill="#FFAB91"/>
		</g>
	</g>
</svg>
